<?xml version="1.0" encoding="UTF-8"?>
<svg id="Layer_1" data-name="Layer 1" xmlns="http://www.w3.org/2000/svg" viewBox="0 0 544.22 544.22">
  <path style="fill: #fdab01;" d="m272.11,0C2.1,0,0,121.83,0,272.11s2.1,272.11,272.11,272.11,272.11-121.83,272.11-272.11S542.12,0,272.11,0Zm-5.15,225.15c.89-1.56,2.48-3.17,3.83-4.54,5.72-5.74,11.46-11.49,17.19-17.23,5.23-5.25,10.47-10.5,15.72-15.75,5.09-5.1,10.19-10.22,15.3-15.33,2.24-2.17,4.88-4.82,8.08-4.9h.14c5.02.34,8.07,6,11.61,10.42,8.42,11.57,16.12,26.44,19.35,38.13,1.59,5.21.33,8.75-5.66,9.39-27.45,1.39-55.15,2.48-82.47,3.19-2.75-.23-4.39-.92-3.08-3.37Zm-9.13,19.24l.03-.08c.78-1.74,4.67-1.88,6.87-2.01,28.49-1.12,57.23-2.24,85.88-3.34,4.71-.24,10.19.51,11.05,5.86,1.52,22.23-5.58,47.81-20.13,69.33-1.5,2.16-3.6,4.67-5.79,5.58-3.96,1.78-7.75-1.88-10.47-4.66-21.17-21.42-42.39-42.88-63.56-64.32-1.6-1.65-4.47-4.54-3.87-6.37Zm-19.08,106.4c1.1-28.81,2.23-57.58,3.35-86.14.11-2.23.28-6.09,2-6.87l.08-.03c1.83-.6,4.72,2.29,6.36,3.87,21.45,21.2,42.89,42.43,64.48,63.78,2.76,2.71,6.56,6.57,4.75,10.48-.89,2.06-3.2,3.97-5.21,5.37-20.18,13.76-44.06,21.69-69.04,20.55-5.77-.74-7.09-5.87-6.76-11Zm-67.1-31.16c16.48-16.52,33-33.07,49.52-49.58,1.54-1.48,4.16-4.14,5.85-3.61l.07.03c1.57.85,1.36,4.58,1.35,6.67-.94,24.89-1.92,50.04-2.89,75.28-.15,3.55-.36,8.7-4.09,9.95-12.27,1.87-45.13-17.5-52.76-27.18-3.06-4.1-.26-8.41,2.95-11.55Zm232.52-33.51c-20.05,99.25-133.26,151.23-223.1,104.76-15.07-8.03-30.07-17.71-41.06-30.86-2.77-4.13-.36-8.49,2.77-11.58,3.47-3.75,8.41-8.6,13.79-5.88,1.64.7,3.23,1.88,4.7,3.03,7.59,6.28,15.55,11.78,23.88,16.24,48.02,26.17,112.52,18.5,151.37-20.16,41.17-37.74,52.08-101.54,27.51-151.92-4.81-9.92-10.95-19.28-18.24-28.1-1.96-2.48-4.24-5.36-4.23-8.53v-.15c.14-4.09,3.68-7.12,6.4-9.86,6.68-6.98,11.8-4.81,17.34,1.71,35.8,39.13,49.86,88.43,38.88,141.3Z"/>
</svg>